<?xml version="1.0" encoding="UTF-8" standalone="no"?>
<!-- Created with Inkscape (http://www.inkscape.org/) -->

<svg
   width="300mm"
   height="300mm"
   viewBox="0 0 300 300"
   version="1.1"
   id="svg5"
   xml:space="preserve"
   xmlns="http://www.w3.org/2000/svg"
   xmlns:svg="http://www.w3.org/2000/svg"><defs
     id="defs2" /><g
     id="logo-inner-layer"><path
       style="fill:#ffffff;stroke:none;stroke-width:0.264583px;stroke-linecap:butt;stroke-linejoin:miter;stroke-opacity:1"
       d="m 89.999999,25 c 3,0 5,2 5,5 0,3 -2,5 -5,5 h -5 v 90 c 0.475133,0 2.600509,0 5,0 3,0 5,2 5,5 0,3 -2,5 -5,5 -5.012517,0 -14.903656,0 -20,0 -3,0 -5,-2 -5,-5 0,-3 2,-5 5,-5 2.050805,0 3.265418,0 5,0 2e-6,-5 0,-85 -2e-6,-90.000002 C 73.999999,35 70.999999,35 69.999999,35 c -3,0 -5,-2 -5,-5 0,-3 2,-5 5,-5 z"
       id="logo-i" /><g
       id="logo-slider-layer"><path
         style="fill:#ffffff;stroke:none;stroke-width:0.264583px;stroke-linecap:butt;stroke-linejoin:miter;stroke-opacity:1"
         d="m 215,30 c 0,-5.000001 4.99999,-5.000001 4.99999,-5.000001 0,0 5,0 5,5.000001 V 69.999999 L 225,130 c 0,5 -5,5 -5,5 0,0 -5,0 -5,-5 z"
         id="logo-slider" /><circle
         style="fill:#ffffff;stroke:none;stroke-width:0.264583"
         id="logo-slider-handle_outer"
         cx="220"
         cy="80"
         r="15" /><ellipse
         style="fill:#00ccff;stroke:none;stroke-width:0.264583"
         id="logo-slider-handle_inner"
         cx="219.99998"
         cy="80"
         rx="9.9999866"
         ry="10.000001" /></g><g
       id="logo-text-layer"><path
         id="logo-text-l"
         style="fill:#ffffff;stroke:none;stroke-width:0.264583"
         d="m 225.00022,171.99984 c -1,2 -3.36141,7.48417 -5.00021,10.50013 -1.43278,2.6368 -2.00022,3.49981 -5.00021,7.4998 h 10.00042 z m -10.00042,18.00045 5.1e-4,79.99977 c 1.7e-4,2.76137 2.23884,4.99981 5.00021,4.99969 2.76118,-1.7e-4 4.99953,-2.23852 4.9997,-4.99969 l -5.2e-4,-79.99977 z" /><path
         id="logo-text-o2"
         style="fill:#ffffff;stroke:none;stroke-width:0.264583"
         d="M 129.99967,235.00038 A 20,20 0 0 0 109.99985,255.00019 20,20 0 0 0 129.99967,275 20,20 0 0 0 150,255.00019 20,20 0 0 0 129.99967,235.00038 Z m 0,9.9999 a 10,10 0 0 1 10.00042,9.99991 10,10 0 0 1 -10.00042,9.99991 10,10 0 0 1 -9.99991,-9.99991 10,10 0 0 1 9.99991,-9.99991 z" /><path
         id="logo-text-o1"
         style="fill:#ffffff;stroke:none;stroke-width:0.264583"
         d="M 179.99982,235.00019 A 20,20 0 0 0 160,255 20,20 0 0 0 179.99982,274.99981 20,20 0 0 0 200.00015,255 20,20 0 0 0 179.99982,235.00019 Z m 0,9.9999 A 10,10 0 0 1 190.00024,255 10,10 0 0 1 179.99982,264.99991 10,10 0 0 1 169.99991,255 a 10,10 0 0 1 9.99991,-9.99991 z" /><path
         id="logo-text-t"
         style="fill:#ffffff;stroke:none;stroke-width:0.264583"
         d="m 84.99998,220.00001 a 5,5 0 0 0 -5.000212,5.00021 v 9.99991 h -4.999695 a 5,5 0 0 0 -5.000211,5.00021 5,5 0 0 0 5.000211,4.99969 h 4.999695 v 25.00003 a 5,5 0 0 0 5.000212,4.99969 5,5 0 0 0 5.000211,-4.99969 v -25.00003 h 4.999695 a 5,5 0 0 0 5.000214,-4.99969 5,5 0 0 0 -5.000214,-5.00021 h -4.999695 v -9.99991 a 5,5 0 0 0 -5.000211,-5.00021 z" /></g><path
       id="logo-u_bow"
       style="fill:#ffffff;stroke:none;stroke-width:0.289836"
       d="m 79.999768,140.00024 a 5,5 0 0 0 -4.999695,4.99969 75,74.999992 0 0 0 75.000077,74.99956 75,74.999992 0 0 0 75.00007,-74.99956 5,5 0 0 0 -5.00021,-4.99969 5,5 0 0 0 -5.00021,4.99969 65,65 0 0 1 -64.99965,64.99965 65,65 0 0 1 -65.00017,-64.99965 5,5 0 0 0 -5.000212,-4.99969 z" /></g><path
     id="logo-border"
     style="fill:#eb660e;fill-opacity:1;stroke:none;stroke-width:0.264583px;stroke-linecap:butt;stroke-linejoin:miter;stroke-opacity:1"
     d="M 9.9999999,0 C 3,0 0,3 0,9.9999999 0,17 0,283 0,290 c 0,7 3,10 9.9999999,10 0,0 273.0000001,0 280.0000001,0 7,0 10,-3 10,-10 0,-7 -2.2e-4,-272.999789 0,-280.0000001 C 300.00021,2.9997883 297,0 290,0 283,0 9.9999999,0 9.9999999,0 Z m 5.0001181,9.9999064 c 0,0 266.999882,9.35e-5 270.000052,0 3.00017,-9.35e-5 4.9997,2.0000936 4.9997,5.0002116 0,0 -1.3e-4,267.000222 0,270.000052 C 290,288 288,290 285.00017,289.99987 282.00034,289.99974 18,290 15,290 c -3,0 -4.999999,-2 -5.0000001,-5 0,0 -1.87e-4,-266.999764 -9.35e-5,-269.999882 C 9.9999999,12 12,9.9999999 15.000118,9.9999064 Z" /></svg>
